<?xml version="1.0" encoding="UTF-8" standalone="no"?>
<!DOCTYPE svg PUBLIC "-//W3C//DTD SVG 1.1//EN"
 "http://www.w3.org/Graphics/SVG/1.1/DTD/svg11.dtd">
<!-- Generated by graphviz version 2.40.1 (20161225.0304)
 -->
<!-- Title: %0 Pages: 1 -->
<svg width="4704pt" height="260pt"
 viewBox="0.00 0.00 4703.93 260.00" xmlns="http://www.w3.org/2000/svg" xmlns:xlink="http://www.w3.org/1999/xlink">
<g id="graph0" class="graph" transform="scale(1 1) rotate(0) translate(4 256)">
<title>%0</title>
<polygon fill="#ffffff" stroke="transparent" points="-4,4 -4,-256 4699.9333,-256 4699.9333,4 -4,4"/>
<!-- LoadCountries -->
<g id="node1" class="node">
<title>LoadCountries</title>
<ellipse fill="none" stroke="#000000" cx="77.5449" cy="-234" rx="68.3594" ry="18"/>
<text text-anchor="middle" x="77.5449" y="-229.8" font-family="Times,serif" font-size="14.00" fill="#000000">LoadCountries</text>
</g>
<!-- CountriesLoaded -->
<g id="node2" class="node">
<title>CountriesLoaded</title>
<ellipse fill="none" stroke="#000000" cx="77.5449" cy="-162" rx="77.5897" ry="18"/>
<text text-anchor="middle" x="77.5449" y="-157.8" font-family="Times,serif" font-size="14.00" fill="#000000">CountriesLoaded</text>
</g>
<!-- LoadCountries&#45;&gt;CountriesLoaded -->
<g id="edge1" class="edge">
<title>LoadCountries&#45;&gt;CountriesLoaded</title>
<path fill="none" stroke="#000000" d="M77.5449,-215.8314C77.5449,-208.131 77.5449,-198.9743 77.5449,-190.4166"/>
<polygon fill="#000000" stroke="#000000" points="81.045,-190.4132 77.5449,-180.4133 74.045,-190.4133 81.045,-190.4132"/>
</g>
<!-- SubmitToolRequest -->
<g id="node3" class="node">
<title>SubmitToolRequest</title>
<ellipse fill="none" stroke="#000000" cx="504.5449" cy="-234" rx="88.0827" ry="18"/>
<text text-anchor="middle" x="504.5449" y="-229.8" font-family="Times,serif" font-size="14.00" fill="#000000">SubmitToolRequest</text>
</g>
<!-- ToolRequestSubmitted -->
<g id="node4" class="node">
<title>ToolRequestSubmitted</title>
<ellipse fill="none" stroke="#000000" cx="273.5449" cy="-162" rx="100.18" ry="18"/>
<text text-anchor="middle" x="273.5449" y="-157.8" font-family="Times,serif" font-size="14.00" fill="#000000">ToolRequestSubmitted</text>
</g>
<!-- SubmitToolRequest&#45;&gt;ToolRequestSubmitted -->
<g id="edge2" class="edge">
<title>SubmitToolRequest&#45;&gt;ToolRequestSubmitted</title>
<path fill="none" stroke="#000000" d="M456.1197,-218.9064C420.5362,-207.8155 371.9543,-192.6731 333.8505,-180.7966"/>
<polygon fill="#000000" stroke="#000000" points="334.4917,-177.3304 323.9032,-177.6961 332.4087,-184.0133 334.4917,-177.3304"/>
</g>
<!-- ToolRequestsLoaded -->
<g id="node5" class="node">
<title>ToolRequestsLoaded</title>
<ellipse fill="none" stroke="#000000" cx="728.5449" cy="-162" rx="93.2006" ry="18"/>
<text text-anchor="middle" x="728.5449" y="-157.8" font-family="Times,serif" font-size="14.00" fill="#000000">ToolRequestsLoaded</text>
</g>
<!-- SubmitToolRequest&#45;&gt;ToolRequestsLoaded -->
<g id="edge3" class="edge">
<title>SubmitToolRequest&#45;&gt;ToolRequestsLoaded</title>
<path fill="none" stroke="#000000" d="M552.0495,-218.7307C586.709,-207.5901 633.8686,-192.4316 670.7203,-180.5865"/>
<polygon fill="#000000" stroke="#000000" points="671.8872,-183.8878 680.3365,-177.4956 669.7451,-177.2236 671.8872,-183.8878"/>
</g>
<!-- ToolRequestSubmitFailed -->
<g id="node6" class="node">
<title>ToolRequestSubmitFailed</title>
<ellipse fill="none" stroke="#000000" cx="504.5449" cy="-162" rx="112.3573" ry="18"/>
<text text-anchor="middle" x="504.5449" y="-157.8" font-family="Times,serif" font-size="14.00" fill="#000000">ToolRequestSubmitFailed</text>
</g>
<!-- SubmitToolRequest&#45;&gt;ToolRequestSubmitFailed -->
<g id="edge4" class="edge">
<title>SubmitToolRequest&#45;&gt;ToolRequestSubmitFailed</title>
<path fill="none" stroke="#000000" d="M504.5449,-215.8314C504.5449,-208.131 504.5449,-198.9743 504.5449,-190.4166"/>
<polygon fill="#000000" stroke="#000000" points="508.045,-190.4132 504.5449,-180.4133 501.045,-190.4133 508.045,-190.4132"/>
</g>
<!-- LoadToolRequests -->
<g id="node7" class="node">
<title>LoadToolRequests</title>
<ellipse fill="none" stroke="#000000" cx="728.5449" cy="-234" rx="83.9701" ry="18"/>
<text text-anchor="middle" x="728.5449" y="-229.8" font-family="Times,serif" font-size="14.00" fill="#000000">LoadToolRequests</text>
</g>
<!-- LoadToolRequests&#45;&gt;ToolRequestsLoaded -->
<g id="edge5" class="edge">
<title>LoadToolRequests&#45;&gt;ToolRequestsLoaded</title>
<path fill="none" stroke="#000000" d="M728.5449,-215.8314C728.5449,-208.131 728.5449,-198.9743 728.5449,-190.4166"/>
<polygon fill="#000000" stroke="#000000" points="732.045,-190.4132 728.5449,-180.4133 725.045,-190.4133 732.045,-190.4132"/>
</g>
<!-- UnlockOffers -->
<g id="node8" class="node">
<title>UnlockOffers</title>
<ellipse fill="none" stroke="#000000" cx="1097.5449" cy="-234" rx="64.2436" ry="18"/>
<text text-anchor="middle" x="1097.5449" y="-229.8" font-family="Times,serif" font-size="14.00" fill="#000000">UnlockOffers</text>
</g>
<!-- OffersUnlocked -->
<g id="node9" class="node">
<title>OffersUnlocked</title>
<ellipse fill="none" stroke="#000000" cx="1106.5449" cy="-162" rx="73.4745" ry="18"/>
<text text-anchor="middle" x="1106.5449" y="-157.8" font-family="Times,serif" font-size="14.00" fill="#000000">OffersUnlocked</text>
</g>
<!-- UnlockOffers&#45;&gt;OffersUnlocked -->
<g id="edge6" class="edge">
<title>UnlockOffers&#45;&gt;OffersUnlocked</title>
<path fill="none" stroke="#000000" d="M1099.8159,-215.8314C1100.7785,-208.131 1101.9231,-198.9743 1102.9928,-190.4166"/>
<polygon fill="#000000" stroke="#000000" points="1106.4757,-190.7702 1104.2432,-180.4133 1099.5298,-189.9019 1106.4757,-190.7702"/>
</g>
<!-- ReloadToolRequest -->
<g id="node10" class="node">
<title>ReloadToolRequest</title>
<ellipse fill="none" stroke="#000000" cx="1297.5449" cy="-162" rx="87.982" ry="18"/>
<text text-anchor="middle" x="1297.5449" y="-157.8" font-family="Times,serif" font-size="14.00" fill="#000000">ReloadToolRequest</text>
</g>
<!-- UnlockOffers&#45;&gt;ReloadToolRequest -->
<g id="edge7" class="edge">
<title>UnlockOffers&#45;&gt;ReloadToolRequest</title>
<path fill="none" stroke="#000000" d="M1137.0584,-219.7751C1167.7276,-208.7342 1210.5554,-193.3162 1244.255,-181.1843"/>
<polygon fill="#000000" stroke="#000000" points="1245.7241,-184.3754 1253.9474,-177.6951 1243.353,-177.7892 1245.7241,-184.3754"/>
</g>
<!-- UnlockOffersFailed -->
<g id="node11" class="node">
<title>UnlockOffersFailed</title>
<ellipse fill="none" stroke="#000000" cx="927.5449" cy="-162" rx="88.0191" ry="18"/>
<text text-anchor="middle" x="927.5449" y="-157.8" font-family="Times,serif" font-size="14.00" fill="#000000">UnlockOffersFailed</text>
</g>
<!-- UnlockOffers&#45;&gt;UnlockOffersFailed -->
<g id="edge8" class="edge">
<title>UnlockOffers&#45;&gt;UnlockOffersFailed</title>
<path fill="none" stroke="#000000" d="M1061.9073,-218.9064C1036.8243,-208.2831 1002.9652,-193.9427 975.5123,-182.3156"/>
<polygon fill="#000000" stroke="#000000" points="976.6671,-179.0038 966.0939,-178.3267 973.9371,-185.4495 976.6671,-179.0038"/>
</g>
<!-- ToolRequestUpdated -->
<g id="node13" class="node">
<title>ToolRequestUpdated</title>
<ellipse fill="none" stroke="#000000" cx="1297.5449" cy="-90" rx="93.2006" ry="18"/>
<text text-anchor="middle" x="1297.5449" y="-85.8" font-family="Times,serif" font-size="14.00" fill="#000000">ToolRequestUpdated</text>
</g>
<!-- ReloadToolRequest&#45;&gt;ToolRequestUpdated -->
<g id="edge10" class="edge">
<title>ReloadToolRequest&#45;&gt;ToolRequestUpdated</title>
<path fill="none" stroke="#000000" d="M1297.5449,-143.8314C1297.5449,-136.131 1297.5449,-126.9743 1297.5449,-118.4166"/>
<polygon fill="#000000" stroke="#000000" points="1301.045,-118.4132 1297.5449,-108.4133 1294.045,-118.4133 1301.045,-118.4132"/>
</g>
<!-- MarkToolRequestAsDeleted -->
<g id="node12" class="node">
<title>MarkToolRequestAsDeleted</title>
<ellipse fill="none" stroke="#000000" cx="1301.5449" cy="-234" rx="122.1094" ry="18"/>
<text text-anchor="middle" x="1301.5449" y="-229.8" font-family="Times,serif" font-size="14.00" fill="#000000">MarkToolRequestAsDeleted</text>
</g>
<!-- MarkToolRequestAsDeleted&#45;&gt;ReloadToolRequest -->
<g id="edge9" class="edge">
<title>MarkToolRequestAsDeleted&#45;&gt;ReloadToolRequest</title>
<path fill="none" stroke="#000000" d="M1300.5355,-215.8314C1300.1077,-208.131 1299.599,-198.9743 1299.1236,-190.4166"/>
<polygon fill="#000000" stroke="#000000" points="1302.6172,-190.2037 1298.5678,-180.4133 1295.628,-190.592 1302.6172,-190.2037"/>
</g>
<!-- LoadFilesForOffer -->
<g id="node14" class="node">
<title>LoadFilesForOffer</title>
<ellipse fill="none" stroke="#000000" cx="2214.5449" cy="-234" rx="83.9431" ry="18"/>
<text text-anchor="middle" x="2214.5449" y="-229.8" font-family="Times,serif" font-size="14.00" fill="#000000">LoadFilesForOffer</text>
</g>
<!-- FilesForOfferLoaded -->
<g id="node15" class="node">
<title>FilesForOfferLoaded</title>
<ellipse fill="none" stroke="#000000" cx="2214.5449" cy="-162" rx="93.1736" ry="18"/>
<text text-anchor="middle" x="2214.5449" y="-157.8" font-family="Times,serif" font-size="14.00" fill="#000000">FilesForOfferLoaded</text>
</g>
<!-- LoadFilesForOffer&#45;&gt;FilesForOfferLoaded -->
<g id="edge11" class="edge">
<title>LoadFilesForOffer&#45;&gt;FilesForOfferLoaded</title>
<path fill="none" stroke="#000000" d="M2214.5449,-215.8314C2214.5449,-208.131 2214.5449,-198.9743 2214.5449,-190.4166"/>
<polygon fill="#000000" stroke="#000000" points="2218.045,-190.4132 2214.5449,-180.4133 2211.045,-190.4133 2218.045,-190.4132"/>
</g>
<!-- AcceptOffer -->
<g id="node16" class="node">
<title>AcceptOffer</title>
<ellipse fill="none" stroke="#000000" cx="1504.5449" cy="-234" rx="59.066" ry="18"/>
<text text-anchor="middle" x="1504.5449" y="-229.8" font-family="Times,serif" font-size="14.00" fill="#000000">AcceptOffer</text>
</g>
<!-- AcceptOffer&#45;&gt;ReloadToolRequest -->
<g id="edge13" class="edge">
<title>AcceptOffer&#45;&gt;ReloadToolRequest</title>
<path fill="none" stroke="#000000" d="M1465.1225,-220.2879C1433.063,-209.1368 1387.4805,-193.282 1351.9471,-180.9225"/>
<polygon fill="#000000" stroke="#000000" points="1352.8057,-177.5155 1342.2109,-177.536 1350.506,-184.127 1352.8057,-177.5155"/>
</g>
<!-- OfferAccepted -->
<g id="node17" class="node">
<title>OfferAccepted</title>
<ellipse fill="none" stroke="#000000" cx="1692.5449" cy="-162" rx="68.2957" ry="18"/>
<text text-anchor="middle" x="1692.5449" y="-157.8" font-family="Times,serif" font-size="14.00" fill="#000000">OfferAccepted</text>
</g>
<!-- AcceptOffer&#45;&gt;OfferAccepted -->
<g id="edge12" class="edge">
<title>AcceptOffer&#45;&gt;OfferAccepted</title>
<path fill="none" stroke="#000000" d="M1541.6876,-219.7751C1570.9748,-208.5587 1612.0572,-192.8251 1643.956,-180.6085"/>
<polygon fill="#000000" stroke="#000000" points="1645.4509,-183.784 1653.5376,-176.9389 1642.9473,-177.247 1645.4509,-183.784"/>
</g>
<!-- OfferAcceptanceFailed -->
<g id="node18" class="node">
<title>OfferAcceptanceFailed</title>
<ellipse fill="none" stroke="#000000" cx="1504.5449" cy="-162" rx="101.2176" ry="18"/>
<text text-anchor="middle" x="1504.5449" y="-157.8" font-family="Times,serif" font-size="14.00" fill="#000000">OfferAcceptanceFailed</text>
</g>
<!-- AcceptOffer&#45;&gt;OfferAcceptanceFailed -->
<g id="edge14" class="edge">
<title>AcceptOffer&#45;&gt;OfferAcceptanceFailed</title>
<path fill="none" stroke="#000000" d="M1504.5449,-215.8314C1504.5449,-208.131 1504.5449,-198.9743 1504.5449,-190.4166"/>
<polygon fill="#000000" stroke="#000000" points="1508.045,-190.4132 1504.5449,-180.4133 1501.045,-190.4133 1508.045,-190.4132"/>
</g>
<!-- DeclineOffer -->
<g id="node19" class="node">
<title>DeclineOffer</title>
<ellipse fill="none" stroke="#000000" cx="1865.5449" cy="-234" rx="61.9326" ry="18"/>
<text text-anchor="middle" x="1865.5449" y="-229.8" font-family="Times,serif" font-size="14.00" fill="#000000">DeclineOffer</text>
</g>
<!-- DeclineOffer&#45;&gt;ReloadToolRequest -->
<g id="edge16" class="edge">
<title>DeclineOffer&#45;&gt;ReloadToolRequest</title>
<path fill="none" stroke="#000000" d="M1806.2598,-228.5341C1716.8016,-219.9857 1542.0765,-202.1185 1394.5449,-180 1386.9225,-178.8572 1378.9827,-177.56 1371.0726,-176.198"/>
<polygon fill="#000000" stroke="#000000" points="1371.5499,-172.7283 1361.0951,-174.4449 1370.3384,-179.6227 1371.5499,-172.7283"/>
</g>
<!-- OfferDeclined -->
<g id="node20" class="node">
<title>OfferDeclined</title>
<ellipse fill="none" stroke="#000000" cx="2036.5449" cy="-162" rx="66.5901" ry="18"/>
<text text-anchor="middle" x="2036.5449" y="-157.8" font-family="Times,serif" font-size="14.00" fill="#000000">OfferDeclined</text>
</g>
<!-- DeclineOffer&#45;&gt;OfferDeclined -->
<g id="edge15" class="edge">
<title>DeclineOffer&#45;&gt;OfferDeclined</title>
<path fill="none" stroke="#000000" d="M1900.9762,-219.0816C1927.0797,-208.0906 1962.7968,-193.0518 1991.017,-181.1696"/>
<polygon fill="#000000" stroke="#000000" points="1992.4171,-184.3778 2000.2752,-177.2714 1989.7007,-177.9263 1992.4171,-184.3778"/>
</g>
<!-- OfferDeclineFailed -->
<g id="node21" class="node">
<title>OfferDeclineFailed</title>
<ellipse fill="none" stroke="#000000" cx="1865.5449" cy="-162" rx="86.2077" ry="18"/>
<text text-anchor="middle" x="1865.5449" y="-157.8" font-family="Times,serif" font-size="14.00" fill="#000000">OfferDeclineFailed</text>
</g>
<!-- DeclineOffer&#45;&gt;OfferDeclineFailed -->
<g id="edge17" class="edge">
<title>DeclineOffer&#45;&gt;OfferDeclineFailed</title>
<path fill="none" stroke="#000000" d="M1865.5449,-215.8314C1865.5449,-208.131 1865.5449,-198.9743 1865.5449,-190.4166"/>
<polygon fill="#000000" stroke="#000000" points="1869.045,-190.4132 1865.5449,-180.4133 1862.045,-190.4133 1869.045,-190.4132"/>
</g>
<!-- LoadToolRequestThreads -->
<g id="node22" class="node">
<title>LoadToolRequestThreads</title>
<ellipse fill="none" stroke="#000000" cx="2477.5449" cy="-90" rx="111.1596" ry="18"/>
<text text-anchor="middle" x="2477.5449" y="-85.8" font-family="Times,serif" font-size="14.00" fill="#000000">LoadToolRequestThreads</text>
</g>
<!-- ToolRequestThreadsLoaded -->
<g id="node23" class="node">
<title>ToolRequestThreadsLoaded</title>
<ellipse fill="none" stroke="#000000" cx="2477.5449" cy="-18" rx="120.3897" ry="18"/>
<text text-anchor="middle" x="2477.5449" y="-13.8" font-family="Times,serif" font-size="14.00" fill="#000000">ToolRequestThreadsLoaded</text>
</g>
<!-- LoadToolRequestThreads&#45;&gt;ToolRequestThreadsLoaded -->
<g id="edge18" class="edge">
<title>LoadToolRequestThreads&#45;&gt;ToolRequestThreadsLoaded</title>
<path fill="none" stroke="#000000" d="M2477.5449,-71.8314C2477.5449,-64.131 2477.5449,-54.9743 2477.5449,-46.4166"/>
<polygon fill="#000000" stroke="#000000" points="2481.045,-46.4132 2477.5449,-36.4133 2474.045,-46.4133 2481.045,-46.4132"/>
</g>
<!-- MarkToolRequestThreadAsRead -->
<g id="node24" class="node">
<title>MarkToolRequestThreadAsRead</title>
<ellipse fill="none" stroke="#000000" cx="2786.5449" cy="-162" rx="139.4285" ry="18"/>
<text text-anchor="middle" x="2786.5449" y="-157.8" font-family="Times,serif" font-size="14.00" fill="#000000">MarkToolRequestThreadAsRead</text>
</g>
<!-- ToolRequestThreadUpdated -->
<g id="node25" class="node">
<title>ToolRequestThreadUpdated</title>
<ellipse fill="none" stroke="#000000" cx="3409.5449" cy="-90" rx="120.3897" ry="18"/>
<text text-anchor="middle" x="3409.5449" y="-85.8" font-family="Times,serif" font-size="14.00" fill="#000000">ToolRequestThreadUpdated</text>
</g>
<!-- MarkToolRequestThreadAsRead&#45;&gt;ToolRequestThreadUpdated -->
<g id="edge19" class="edge">
<title>MarkToolRequestThreadAsRead&#45;&gt;ToolRequestThreadUpdated</title>
<path fill="none" stroke="#000000" d="M2887.6392,-149.5865C2903.3399,-147.6928 2919.3773,-145.7782 2934.5449,-144 3076.2521,-127.387 3111.7872,-124.1772 3253.5449,-108 3269.9612,-106.1266 3287.3479,-104.1314 3304.3254,-102.177"/>
<polygon fill="#000000" stroke="#000000" points="3304.73,-105.6537 3314.2638,-101.0323 3303.9289,-98.6996 3304.73,-105.6537"/>
</g>
<!-- ToolRequestThreadUpdateFailed -->
<g id="node26" class="node">
<title>ToolRequestThreadUpdateFailed</title>
<ellipse fill="none" stroke="#000000" cx="3104.5449" cy="-90" rx="139.5083" ry="18"/>
<text text-anchor="middle" x="3104.5449" y="-85.8" font-family="Times,serif" font-size="14.00" fill="#000000">ToolRequestThreadUpdateFailed</text>
</g>
<!-- MarkToolRequestThreadAsRead&#45;&gt;ToolRequestThreadUpdateFailed -->
<g id="edge20" class="edge">
<title>MarkToolRequestThreadAsRead&#45;&gt;ToolRequestThreadUpdateFailed</title>
<path fill="none" stroke="#000000" d="M2855.9383,-146.2883C2905.8988,-134.9765 2973.3843,-119.6967 3025.4363,-107.9114"/>
<polygon fill="#000000" stroke="#000000" points="3026.3191,-111.3002 3035.2993,-105.6782 3024.7732,-104.473 3026.3191,-111.3002"/>
</g>
<!-- MarkToolRequestThreadAsProcessing -->
<g id="node27" class="node">
<title>MarkToolRequestThreadAsProcessing</title>
<ellipse fill="none" stroke="#000000" cx="3104.5449" cy="-162" rx="161.4178" ry="18"/>
<text text-anchor="middle" x="3104.5449" y="-157.8" font-family="Times,serif" font-size="14.00" fill="#000000">MarkToolRequestThreadAsProcessing</text>
</g>
<!-- MarkToolRequestThreadAsProcessing&#45;&gt;ToolRequestThreadUpdated -->
<g id="edge21" class="edge">
<title>MarkToolRequestThreadAsProcessing&#45;&gt;ToolRequestThreadUpdated</title>
<path fill="none" stroke="#000000" d="M3173.7541,-145.6621C3221.8496,-134.3084 3285.8891,-119.1909 3335.0908,-107.576"/>
<polygon fill="#000000" stroke="#000000" points="3336.1101,-110.9317 3345.0384,-105.2277 3334.5018,-104.119 3336.1101,-110.9317"/>
</g>
<!-- MarkToolRequestThreadAsProcessing&#45;&gt;ToolRequestThreadUpdateFailed -->
<g id="edge22" class="edge">
<title>MarkToolRequestThreadAsProcessing&#45;&gt;ToolRequestThreadUpdateFailed</title>
<path fill="none" stroke="#000000" d="M3104.5449,-143.8314C3104.5449,-136.131 3104.5449,-126.9743 3104.5449,-118.4166"/>
<polygon fill="#000000" stroke="#000000" points="3108.045,-118.4132 3104.5449,-108.4133 3101.045,-118.4133 3108.045,-118.4132"/>
</g>
<!-- MarkToolRequestThreadAsRejected -->
<g id="node28" class="node">
<title>MarkToolRequestThreadAsRejected</title>
<ellipse fill="none" stroke="#000000" cx="3436.5449" cy="-162" rx="153.3099" ry="18"/>
<text text-anchor="middle" x="3436.5449" y="-157.8" font-family="Times,serif" font-size="14.00" fill="#000000">MarkToolRequestThreadAsRejected</text>
</g>
<!-- MarkToolRequestThreadAsRejected&#45;&gt;ToolRequestThreadUpdated -->
<g id="edge23" class="edge">
<title>MarkToolRequestThreadAsRejected&#45;&gt;ToolRequestThreadUpdated</title>
<path fill="none" stroke="#000000" d="M3429.7316,-143.8314C3426.7805,-135.9617 3423.259,-126.5712 3419.9898,-117.8533"/>
<polygon fill="#000000" stroke="#000000" points="3423.2383,-116.5476 3416.4498,-108.4133 3416.684,-119.0055 3423.2383,-116.5476"/>
</g>
<!-- MarkToolRequestThreadAsRejected&#45;&gt;ToolRequestThreadUpdateFailed -->
<g id="edge24" class="edge">
<title>MarkToolRequestThreadAsRejected&#45;&gt;ToolRequestThreadUpdateFailed</title>
<path fill="none" stroke="#000000" d="M3363.275,-146.1102C3310.7825,-134.7262 3240.0752,-119.3921 3185.8433,-107.631"/>
<polygon fill="#000000" stroke="#000000" points="3186.4315,-104.1773 3175.9169,-105.4783 3184.9479,-111.0183 3186.4315,-104.1773"/>
</g>
<!-- MoveToolRequestThreadToArchive -->
<g id="node29" class="node">
<title>MoveToolRequestThreadToArchive</title>
<ellipse fill="none" stroke="#000000" cx="2477.5449" cy="-162" rx="152.1737" ry="18"/>
<text text-anchor="middle" x="2477.5449" y="-157.8" font-family="Times,serif" font-size="14.00" fill="#000000">MoveToolRequestThreadToArchive</text>
</g>
<!-- MoveToolRequestThreadToArchive&#45;&gt;LoadToolRequestThreads -->
<g id="edge25" class="edge">
<title>MoveToolRequestThreadToArchive&#45;&gt;LoadToolRequestThreads</title>
<path fill="none" stroke="#000000" d="M2477.5449,-143.8314C2477.5449,-136.131 2477.5449,-126.9743 2477.5449,-118.4166"/>
<polygon fill="#000000" stroke="#000000" points="2481.045,-118.4132 2477.5449,-108.4133 2474.045,-118.4133 2481.045,-118.4132"/>
</g>
<!-- MoveToolRequestThreadToArchive&#45;&gt;ToolRequestThreadUpdateFailed -->
<g id="edge26" class="edge">
<title>MoveToolRequestThreadToArchive&#45;&gt;ToolRequestThreadUpdateFailed</title>
<path fill="none" stroke="#000000" d="M2586.7599,-149.4586C2699.6621,-136.4937 2875.1744,-116.3392 2990.0002,-103.1535"/>
<polygon fill="#000000" stroke="#000000" points="2990.6922,-106.5971 3000.2276,-101.979 2989.8936,-99.6428 2990.6922,-106.5971"/>
</g>
<!-- MoveToolRequestThreadFromArchive -->
<g id="node30" class="node">
<title>MoveToolRequestThreadFromArchive</title>
<ellipse fill="none" stroke="#000000" cx="3769.5449" cy="-162" rx="162.0655" ry="18"/>
<text text-anchor="middle" x="3769.5449" y="-157.8" font-family="Times,serif" font-size="14.00" fill="#000000">MoveToolRequestThreadFromArchive</text>
</g>
<!-- MoveToolRequestThreadFromArchive&#45;&gt;ToolRequestThreadUpdateFailed -->
<g id="edge28" class="edge">
<title>MoveToolRequestThreadFromArchive&#45;&gt;ToolRequestThreadUpdateFailed</title>
<path fill="none" stroke="#000000" d="M3653.3304,-149.4174C3532.1976,-136.3023 3343.4119,-115.8623 3221.8682,-102.7027"/>
<polygon fill="#000000" stroke="#000000" points="3222.0986,-99.2073 3211.7799,-101.6104 3221.345,-106.1666 3222.0986,-99.2073"/>
</g>
<!-- LoadArchivedToolRequestThreads -->
<g id="node31" class="node">
<title>LoadArchivedToolRequestThreads</title>
<ellipse fill="none" stroke="#000000" cx="3769.5449" cy="-90" rx="147.0171" ry="18"/>
<text text-anchor="middle" x="3769.5449" y="-85.8" font-family="Times,serif" font-size="14.00" fill="#000000">LoadArchivedToolRequestThreads</text>
</g>
<!-- MoveToolRequestThreadFromArchive&#45;&gt;LoadArchivedToolRequestThreads -->
<g id="edge27" class="edge">
<title>MoveToolRequestThreadFromArchive&#45;&gt;LoadArchivedToolRequestThreads</title>
<path fill="none" stroke="#000000" d="M3769.5449,-143.8314C3769.5449,-136.131 3769.5449,-126.9743 3769.5449,-118.4166"/>
<polygon fill="#000000" stroke="#000000" points="3773.045,-118.4132 3769.5449,-108.4133 3766.045,-118.4133 3773.045,-118.4132"/>
</g>
<!-- ArchivedToolRequestThreadsLoaded -->
<g id="node36" class="node">
<title>ArchivedToolRequestThreadsLoaded</title>
<ellipse fill="none" stroke="#000000" cx="3769.5449" cy="-18" rx="156.2472" ry="18"/>
<text text-anchor="middle" x="3769.5449" y="-13.8" font-family="Times,serif" font-size="14.00" fill="#000000">ArchivedToolRequestThreadsLoaded</text>
</g>
<!-- LoadArchivedToolRequestThreads&#45;&gt;ArchivedToolRequestThreadsLoaded -->
<g id="edge33" class="edge">
<title>LoadArchivedToolRequestThreads&#45;&gt;ArchivedToolRequestThreadsLoaded</title>
<path fill="none" stroke="#000000" d="M3769.5449,-71.8314C3769.5449,-64.131 3769.5449,-54.9743 3769.5449,-46.4166"/>
<polygon fill="#000000" stroke="#000000" points="3773.045,-46.4132 3769.5449,-36.4133 3766.045,-46.4133 3773.045,-46.4132"/>
</g>
<!-- ReloadToolRequestThread -->
<g id="node32" class="node">
<title>ReloadToolRequestThread</title>
<ellipse fill="none" stroke="#000000" cx="4064.5449" cy="-162" rx="115.1706" ry="18"/>
<text text-anchor="middle" x="4064.5449" y="-157.8" font-family="Times,serif" font-size="14.00" fill="#000000">ReloadToolRequestThread</text>
</g>
<!-- ReloadToolRequestThread&#45;&gt;ToolRequestThreadUpdated -->
<g id="edge29" class="edge">
<title>ReloadToolRequestThread&#45;&gt;ToolRequestThreadUpdated</title>
<path fill="none" stroke="#000000" d="M3981.5689,-149.4541C3967.8771,-147.5279 3953.8225,-145.6381 3940.5449,-144 3797.107,-126.304 3631.3476,-110.1264 3523.7081,-100.1857"/>
<polygon fill="#000000" stroke="#000000" points="3523.7544,-96.6752 3513.4756,-99.2433 3523.1124,-103.6457 3523.7544,-96.6752"/>
</g>
<!-- SubmitOffer -->
<g id="node33" class="node">
<title>SubmitOffer</title>
<ellipse fill="none" stroke="#000000" cx="4269.5449" cy="-234" rx="59.6878" ry="18"/>
<text text-anchor="middle" x="4269.5449" y="-229.8" font-family="Times,serif" font-size="14.00" fill="#000000">SubmitOffer</text>
</g>
<!-- SubmitOffer&#45;&gt;ReloadToolRequestThread -->
<g id="edge31" class="edge">
<title>SubmitOffer&#45;&gt;ReloadToolRequestThread</title>
<path fill="none" stroke="#000000" d="M4230.5034,-220.2879C4199.6032,-209.4351 4156.0176,-194.127 4121.267,-181.9219"/>
<polygon fill="#000000" stroke="#000000" points="4122.3125,-178.5796 4111.7177,-178.568 4119.9929,-185.1841 4122.3125,-178.5796"/>
</g>
<!-- OfferSubmitted -->
<g id="node34" class="node">
<title>OfferSubmitted</title>
<ellipse fill="none" stroke="#000000" cx="4269.5449" cy="-162" rx="71.7853" ry="18"/>
<text text-anchor="middle" x="4269.5449" y="-157.8" font-family="Times,serif" font-size="14.00" fill="#000000">OfferSubmitted</text>
</g>
<!-- SubmitOffer&#45;&gt;OfferSubmitted -->
<g id="edge30" class="edge">
<title>SubmitOffer&#45;&gt;OfferSubmitted</title>
<path fill="none" stroke="#000000" d="M4269.5449,-215.8314C4269.5449,-208.131 4269.5449,-198.9743 4269.5449,-190.4166"/>
<polygon fill="#000000" stroke="#000000" points="4273.045,-190.4132 4269.5449,-180.4133 4266.045,-190.4133 4273.045,-190.4132"/>
</g>
<!-- OfferSubmitFailed -->
<g id="node35" class="node">
<title>OfferSubmitFailed</title>
<ellipse fill="none" stroke="#000000" cx="4443.5449" cy="-162" rx="83.9624" ry="18"/>
<text text-anchor="middle" x="4443.5449" y="-157.8" font-family="Times,serif" font-size="14.00" fill="#000000">OfferSubmitFailed</text>
</g>
<!-- SubmitOffer&#45;&gt;OfferSubmitFailed -->
<g id="edge32" class="edge">
<title>SubmitOffer&#45;&gt;OfferSubmitFailed</title>
<path fill="none" stroke="#000000" d="M4304.7563,-219.4297C4330.808,-208.6497 4366.6004,-193.8391 4395.3118,-181.9585"/>
<polygon fill="#000000" stroke="#000000" points="4396.8511,-185.1094 4404.753,-178.0518 4394.1746,-178.6413 4396.8511,-185.1094"/>
</g>
<!-- ApiRootLoaded -->
<g id="node37" class="node">
<title>ApiRootLoaded</title>
<ellipse fill="none" stroke="#000000" cx="4620.5449" cy="-234" rx="73.019" ry="18"/>
<text text-anchor="middle" x="4620.5449" y="-229.8" font-family="Times,serif" font-size="14.00" fill="#000000">ApiRootLoaded</text>
</g>
<!-- LoadUserProfile -->
<g id="node38" class="node">
<title>LoadUserProfile</title>
<ellipse fill="none" stroke="#000000" cx="4620.5449" cy="-162" rx="75.2771" ry="18"/>
<text text-anchor="middle" x="4620.5449" y="-157.8" font-family="Times,serif" font-size="14.00" fill="#000000">LoadUserProfile</text>
</g>
<!-- ApiRootLoaded&#45;&gt;LoadUserProfile -->
<g id="edge34" class="edge">
<title>ApiRootLoaded&#45;&gt;LoadUserProfile</title>
<path fill="none" stroke="#000000" d="M4620.5449,-215.8314C4620.5449,-208.131 4620.5449,-198.9743 4620.5449,-190.4166"/>
<polygon fill="#000000" stroke="#000000" points="4624.045,-190.4132 4620.5449,-180.4133 4617.045,-190.4133 4624.045,-190.4132"/>
</g>
</g>
</svg>
